# xmcd CD database file
#
# Track frame offsets:
#	150
#	13937
#	26345
#	42055
#	55370
#	66200
#	78012
#	92595
#	106712
#	120002
#	134705
#	147857
#	162815
#	176835
#	191707
#	205507
#
# Disc length: 2929 seconds
#
# Revision: 1
# Processed by: cddbd v1.5.1PL0 Copyright (c) Steve Scherf et al.
# Submitted via: CDex 1.51
#
DISCID=ca0b6f10
DTITLE=Django Reinhardt [ Jazz and Tzaz Magazine ( Hellenic # 151 ) ] - Original Recordings ( 1935 - 1949 ) With Stephan Grappelli and The Quintet Of The Hot Club Of France , Coleman Hawkins a.o.
DYEAR=2005
DGENRE=Jazz
TTITLE0=Avalon
TTITLE1=I'Ve Found A New Baby
TTITLE2=St. Louis Blues
TTITLE3=Djangology
TTITLE4=Swing Guitars
TTITLE5=Tears
TTITLE6=Minor Swing
TTITLE7=Daphne
TTITLE8=My Sweet
TTITLE9=Swing '39
TTITLE10=HCQ Strut
TTITLE11=Manoir De Mes Reves
TTITLE12=Nuages
TTITLE13=September Song
TTITLE14=Topsy
TTITLE15=Lover Man
EXTD=YEAR: 2005
EXTT0=
EXTT1=
EXTT2=
EXTT3=
EXTT4=
EXTT5=
EXTT6=
EXTT7=
EXTT8=
EXTT9=
EXTT10=
EXTT11=
EXTT12=
EXTT13=
EXTT14=
EXTT15=
PLAYORDER=
